/* XPM */
static char * life_xpm[] = {
"16 16 13 1",
" 	c None",
".	c #FFFFFF",
"+	c #EFEFEF",
"@	c #BFBFBF",
"#	c #909090",
"$	c #808080",
"%	c #DFDFDF",
"&	c #8F8F8F",
"*	c #404040",
"=	c #101010",
"-	c #000000",
";	c #7F7F7F",
">	c #202020",
"................",
"....+@#$$#@+....",
"...%&*=--=*&%...",
"..%;>------>;%..",
".+&>-------->&+.",
".@*----------*@.",
".#=----------=#.",
".$------------$.",
".$------------$.",
".#=----------=#.",
".@*----------*@.",
".+&>-------->&+.",
"..%;>------>;%..",
"...%&*=--=*&%...",
"....+@&;;&@+....",
"................"};
