/* XPM */
static char * no_life_xpm[] = {
"16 16 19 1",
" 	c None",
".	c #FFFFFF",
"+	c #EFEFEF",
"@	c #BFBFBF",
"#	c #909090",
"$	c #808080",
"%	c #DFDFDF",
"&	c #939393",
"*	c #5A5A5A",
"=	c #575757",
"-	c #676767",
";	c #848484",
">	c #616161",
",	c #8E8E8E",
"'	c #B5B5B5",
")	c #CFCFCF",
"!	c #A8A8A8",
"~	c #8F8F8F",
"{	c #7F7F7F",
"................",
"....+@#$$#@+....",
"...%&*=--=*&%...",
"..%;>,'))',>;%..",
".+&>!))))))!>&+.",
".@*,)))))))),*@.",
".#='))))))))'=#.",
".$-))))))))))-$.",
".$-))))))))))-$.",
".#='))))))))'=#.",
".@*,)))))))),*@.",
".+&>!))))))!>&+.",
"..%;>,'))',>;%..",
"...%&*=--=*&%...",
"....+@~{{~@+....",
"................"};
